<?xml version="1.0" encoding="UTF-8"?>
<svg id="Camada_2" data-name="Camada 2" xmlns="http://www.w3.org/2000/svg" viewBox="0 0 344.28 148.68">
  <defs>
    <style>
      .cls-1 {
        fill: #efb902;
      }

      .cls-2 {
        fill: #d28ba2;
      }

      .cls-3 {
        fill: #d689a1;
      }

      .cls-4 {
        fill: #441c34;
      }

      .cls-5 {
        fill: #422235;
      }

      .cls-6 {
        fill: #6a9a25;
      }
    </style>
  </defs>
  <g id="Camada_2-2" data-name="Camada 2">
    <g>
      <path class="cls-1" d="M59.79,58.12c9.79,3.55,12.07-4.25,11.31-12.45-1.4-15.11-17.71-17.91-25.25-4.87-7.85,13.57-8.62,50.89,5.67,60.66,9.94,6.8,21.11.29,24.48-10.16.46-1.41.94-6.5,1.19-6.73.15-.14,3.88-.87,3.75,1.09-1.12,16.63-13.1,30.74-30.84,25.53-32.17-9.44-28.59-88.02,12.9-81.57,12.69,1.97,19.5,16.58,16.66,28.36-2.73,11.33-17.83,11.43-19.87.14Z"/>
      <path class="cls-6" d="M256.18,52.84c.08-.08,1.48.04,2.18-.44,6.86-4.7-.55-17.32-8.97-8.25-7.45,8.03-7.41,31.84-2.93,41.41,5.17,11.05,15.79,7.1,19.91-2.55,1.41-3.3-.03-6.2,4.16-5.28,1.15,8.42-5.41,21.45-14.14,23.23-34.6,7.07-31.56-76.14,4.54-63.07,12.43,4.5,10.86,23.66-1.2,20.06-1.33-.4-4.29-4.34-3.56-5.12Z"/>
      <path class="cls-6" d="M290.17,12.08v83.4c0,1.17,2.51,4.01,2.27,5.66h-15.86l2.28-6.4c-.95-23.33,1.07-46.94.31-70.21-.14-4.3-.22-8.72-2.6-12.45h13.6Z"/>
      <path class="cls-6" d="M57.52,24.16c.46-4.34-2.74-8.75-1.97-12.86.96-5.13,5.77-9.18,10.27-11.3-2.14,6.05,3.64,11.52,2.09,17.55-.93,3.6-6.83,6.81-10.39,6.6Z"/>
      <path class="cls-6" d="M40.14,110.2c-1.26,3.31-.38,6.7-.93,10-1.18,7.05-7.88,9.88-14.17,11.12,2.9-5.08.03-12.68,3.4-17.35,2.15-2.98,8.25-3.67,11.7-3.78Z"/>
      <path class="cls-6" d="M.86,97.36l10.55-10.96c4.16-3.55,10.43-.63,13.61,3.05-7.18,9.19-12.35,12.94-24.16,7.92Z"/>
      <path class="cls-6" d="M24.28,61.13c-7.55.21-11.81,5.05-18.9-.35-.93-.71-6.19-6.41-5.26-7.19,5.32,1.24,11.21-3.71,16.04-2.88,4.58.78,6.68,6.61,8.13,10.42Z"/>
      <path class="cls-6" d="M19.75,12.83c1.27.57,1.32,1.77,2.89,2.76,7.77,4.95,18.89,3.09,11.83,18.35-2.58-2.72-6.58-2.63-9.7-4.64-5.98-3.85-5.12-10.2-5.03-16.48Z"/>
      <path class="cls-3" d="M59.02,116.23c1.86.82,7.96-2.72,8.7-1.52.46.74,4.08,16.08,4.05,17.02-.12,4.28-6.26,6.89-8.81,2.08-.75-1.42-4.58-16.94-3.94-17.58Z"/>
      <path class="cls-5" d="M256.18,130.58c-6.76,10.24,10.81,9.82,4.88.77-2.12-3.24-7.1-3.34-7.85-8-1.67-10.39,12.93-7.7,10.16-1.86-.31.65-1.43,1.66-2.26,1.52-1.89-.32.23-3.24-.71-4.56-.9-1.26-3.56-1.09-4.1.53-1.94,5.86,5.87,6.98,7.96,10.7,6.7,11.9-15.27,13.47-12.47,3.7.44-1.53,2.71-3.18,4.4-2.81Z"/>
      <path class="cls-5" d="M203.95,123.68c-.75.45-2.64-.07-3.67.09-.71-.6,3.23-3.96.78-5.7-5.94-4.22-9.63,19.52-.57,18.41,2.35-.29,2.66-2.36,3.46-4.13s1.07-1.99.86.1c-.31,3.2-2.13,6.81-5.74,7.18-10.83,1.12-10.79-26.73,2.95-22.49,2.18.67,3.37,5.67,1.92,6.55Z"/>
      <path class="cls-5" d="M231.25,107.93v29.81c0,.23,1.04,1.07.75,1.88h-5.28c2.86-9.69,1.57-21.65.76-31.69h3.77Z"/>
      <path class="cls-5" d="M187.44,116.99v20.76c0,.23,1.04,1.07.75,1.88h-5.28c-.37-.27.76-.97.76-1.13v-21.51h3.78Z"/>
      <path class="cls-1" d="M76.4,109.45l12.14,9.37c1.76,2.3.43,6.05-2.66,5.75-3.06-.29-7.69-12.29-9.48-15.12Z"/>
      <path class="cls-1" d="M25.79,44.52c-3.76-1.6-14.14-2.25-16.9-4.44-.87-.69-.71-3.81-.14-4.65,2.53-3.71,14.67,7.06,17.04,9.1Z"/>
      <path class="cls-1" d="M74.89,27.92l7.13-12.87c1.17-1.58,3.26-1.96,5-1.14,1.07.76,1,3.84.32,4.95l-12.45,9.06Z"/>
      <path class="cls-1" d="M28.81,101.9c-2.49,2.47-10.26,12.12-13.14,12.05-2.9-.06-3.81-2.88-2.56-5.12.48-.86,13.54-6.31,15.7-6.94Z"/>
      <path class="cls-4" d="M21.07,76.8c-3.1,3.13-8.61-2.13-4.79-5.16,3.64-2.9,7.83,2.09,4.79,5.16Z"/>
      <path class="cls-4" d="M45.21,19c5.18-1.55,6.19,5.38,1.94,6.55-4.38,1.2-5.52-5.48-1.94-6.55Z"/>
      <path class="cls-4" d="M48.23,117.12c7.08-2.09,5.21,8.84-.34,6.11-2.71-1.33-2.23-5.35.34-6.11Z"/>
      <path class="cls-5" d="M243.34,113.21c.52-1.01,5.25-7.89,6.04-4.13.33,1.57-5.07,4.89-6.04,4.13Z"/>
      <path class="cls-5" d="M187.44,113.21c-4.99,1.25-4.58-4.81-1.14-3.76,1.26.38,1.27,2.65,1.14,3.76Z"/>
      <path class="cls-2" d="M171.79,49.98c-4.22-13.13-17.02-17.66-27.41-7.71V12.08h-12.84c.3,1.14,2.27,4.09,2.27,4.91v84.16c4.48-.52,11.03,2.34,9.83-4.53,7.14,7.47,18.58,5.92,24.5-2.31,7.2-10.02,7.3-32.97,3.66-44.32ZM159.32,90.03c-1.8,4.14-5.1,8.02-9.95,4.99-5.52-3.45-5.43-27.13-5.02-33.53.29-4.51,1.56-14.31,4.83-17.44,3.35-3.22,7.08-1.79,9.43,1.75,6.25,9.41,5.13,34.07.71,44.24Z"/>
      <path class="cls-1" d="M123.23,93.22c-1.6-14.87,1.47-32.11-.32-47.23-3.29-14.18-36.02-13.26-32.73,7.04.14.88,1.38,4.21,2.24,4.59,2.94,1.3,8.8,1.01,10.1-2.47,1.32-3.54-1.36-1.47-3.05-3.86-4.92-6.95,4.68-15.34,10.51-8.99,3.11,3.38,3.45,13.22,2.48,17.51-1.18,5.21-13.11,6.96-17.33,9.08-12.48,6.29-11.94,34.21,7.34,32.24,5.47-.56,7.09-3.7,10.94-6.79-.11.84.42,6.79.76,6.79h12.09c-1.54-2.33-2.72-5.09-3.03-7.92ZM112.66,85.67c0,.26-1.63,4.21-1.96,4.83-5.3,9.92-13.19,3.03-13.19-6.34,0-10.72,7-13.31,15.15-17.74v19.25Z"/>
      <path class="cls-2" d="M200.08,36.41c-26.96,4.24-25.78,62.56-.18,65.48,36.05,4.12,33.94-70.8.18-65.48ZM203.67,98.17c-8.56.37-12-15.06-12.48-21.53-.61-8.25-.12-35.82,11.86-36.41,8.79-.43,11.94,17.08,12.38,23.52.53,7.78-.69,33.95-11.75,34.42Z"/>
      <path class="cls-6" d="M327.92,37.38c-7.06-2.39-14.68-.73-20.11,4.4-16.91,15.99-11.58,66.01,18.66,59.78,22.67-4.68,24.27-56.45,1.45-64.18ZM326.38,96.17c-11.56,9.98-16.84-14.51-17.35-21.8-.53-7.63,1.17-33.59,11.86-34.15,6.71-.35,10.26,9.45,11.38,14.71,2.11,9.88,2.36,34.12-5.89,41.25Z"/>
      <path class="cls-5" d="M176.86,117.38c-3.53-1.6-5.24.83-6.41.83-.64,0-2.55-1.99-4.15-1.23v30.57c0,.16-1.13.85-.75,1.12h5.28c-1.1-3.42-.74-7.01-.75-10.56,11.72,7.35,13.63-17.63,6.78-20.74ZM173.38,138.08c-4.77.84-3.96-18.1-1.71-19.48,6.52-4,6.85,18.57,1.71,19.48Z"/>
      <path class="cls-5" d="M215.19,116.39c-10,.99-10.22,24.12,1.32,23.28,10.75-.77,9.29-24.33-1.32-23.28ZM215.77,138.9c-5.28.02-6.14-19.52-.59-21.04,4.13-1.13,5.52,6.99,5.57,10.08.04,2.7-1.3,10.95-4.97,10.96Z"/>
      <path class="cls-5" d="M245.83,135.89c-4.91,2.99-7.08-3.66-7.03-7.58,21.04-.42,3.36-22.29-2.62-6.02-1.54,4.18-1.41,8.45.19,12.6,3.31,8.56,12.84,4.48,12.24-3.56-1.51.63-1.15,3.56-2.79,4.56ZM245.61,120.43c.87,5.37-2.9,5.7-6.8,7.13-1.69-4.42,5.53-15,6.8-7.13Z"/>
    </g>
  </g>
</svg>