<?xml version="1.0" encoding="UTF-8"?>
<svg id="Camada_2" data-name="Camada 2" xmlns="http://www.w3.org/2000/svg" viewBox="0 0 100 43.19">
  <defs>
    <style>
      .cls-1 {
        fill: #fff;
      }
    </style>
  </defs>
  <g id="Camada_2-2" data-name="Camada 2">
    <g>
      <path class="cls-1" d="M17.37,16.88c2.84,1.03,3.51-1.23,3.29-3.62-.41-4.39-5.14-5.2-7.33-1.41-2.28,3.94-2.5,14.78,1.65,17.62,2.89,1.97,6.13.08,7.11-2.95.13-.41.27-1.89.35-1.96.04-.04,1.13-.25,1.09.32-.33,4.83-3.81,8.93-8.96,7.41-9.34-2.74-8.3-25.57,3.75-23.69,3.69.57,5.66,4.81,4.84,8.24-.79,3.29-5.18,3.32-5.77.04Z"/>
      <path class="cls-1" d="M74.41,15.35s.43.01.63-.13c1.99-1.36-.16-5.03-2.61-2.39-2.16,2.33-2.15,9.25-.85,12.03,1.5,3.21,4.59,2.06,5.78-.74.41-.96,0-1.8,1.21-1.53.34,2.45-1.57,6.23-4.11,6.75-10.05,2.05-9.17-22.12,1.32-18.32,3.61,1.31,3.16,6.87-.35,5.83-.39-.12-1.25-1.26-1.03-1.49Z"/>
      <path class="cls-1" d="M84.28,3.51v24.22c0,.34.73,1.17.66,1.64h-4.61l.66-1.86c-.28-6.78.31-13.63.09-20.39-.04-1.25-.06-2.53-.75-3.62h3.95Z"/>
      <path class="cls-1" d="M16.71,7.02c.13-1.26-.79-2.54-.57-3.73.28-1.49,1.68-2.67,2.98-3.28-.62,1.76,1.06,3.35.61,5.1-.27,1.05-1.99,1.98-3.02,1.92Z"/>
      <path class="cls-1" d="M11.66,32.01c-.37.96-.11,1.94-.27,2.91-.34,2.05-2.29,2.87-4.11,3.23.84-1.47.01-3.68.99-5.04.62-.87,2.4-1.07,3.4-1.1Z"/>
      <path class="cls-1" d="M.25,28.28l3.06-3.18c1.21-1.03,3.03-.18,3.95.89-2.08,2.67-3.59,3.76-7.02,2.3Z"/>
      <path class="cls-1" d="M7.05,17.76c-2.19.06-3.43,1.47-5.49-.1-.27-.21-1.8-1.86-1.53-2.09,1.54.36,3.25-1.08,4.66-.84,1.33.23,1.94,1.92,2.36,3.03Z"/>
      <path class="cls-1" d="M5.74,3.73c.37.17.38.51.84.8,2.26,1.44,5.49.9,3.44,5.33-.75-.79-1.91-.76-2.82-1.35-1.74-1.12-1.49-2.96-1.46-4.79Z"/>
      <path class="cls-1" d="M17.14,33.76c.54.24,2.31-.79,2.53-.44.13.22,1.19,4.67,1.18,4.94-.03,1.24-1.82,2-2.56.6-.22-.41-1.33-4.92-1.14-5.11Z"/>
      <path class="cls-1" d="M74.41,37.93c-1.96,2.97,3.14,2.85,1.42.22-.62-.94-2.06-.97-2.28-2.32-.49-3.02,3.76-2.24,2.95-.54-.09.19-.41.48-.66.44-.55-.09.07-.94-.21-1.33s-1.03-.32-1.19.15c-.56,1.7,1.7,2.03,2.31,3.11,1.94,3.46-4.44,3.91-3.62,1.07.13-.44.79-.92,1.28-.81Z"/>
      <path class="cls-1" d="M59.24,35.93c-.22.13-.77-.02-1.07.03-.21-.17.94-1.15.23-1.66-1.73-1.22-2.8,5.67-.16,5.35.68-.08.77-.69,1-1.2s.31-.58.25.03c-.09.93-.62,1.98-1.67,2.09-3.15.32-3.13-7.77.86-6.53.63.2.98,1.65.56,1.9Z"/>
      <path class="cls-1" d="M67.17,31.35v8.66c0,.07.3.31.22.55h-1.53c.83-2.82.46-6.29.22-9.2h1.1Z"/>
      <path class="cls-1" d="M54.44,33.98v6.03c0,.07.3.31.22.55h-1.53c-.11-.08.22-.28.22-.33v-6.25h1.1Z"/>
      <path class="cls-1" d="M22.19,31.79l3.52,2.72c.51.67.12,1.76-.77,1.67-.89-.08-2.23-3.57-2.75-4.39Z"/>
      <path class="cls-1" d="M7.49,12.93c-1.09-.46-4.11-.65-4.91-1.29-.25-.2-.21-1.11-.04-1.35.73-1.08,4.26,2.05,4.95,2.64Z"/>
      <path class="cls-1" d="M21.75,8.11l2.07-3.74c.34-.46.95-.57,1.45-.33.31.22.29,1.12.09,1.44l-3.62,2.63Z"/>
      <path class="cls-1" d="M8.37,29.6c-.72.72-2.98,3.52-3.82,3.5s-1.11-.84-.74-1.49c.14-.25,3.93-1.83,4.56-2.02Z"/>
      <path class="cls-1" d="M6.12,22.31c-.9.91-2.5-.62-1.39-1.5s2.28.61,1.39,1.5Z"/>
      <path class="cls-1" d="M13.13,5.52c1.5-.45,1.8,1.56.56,1.9-1.27.35-1.6-1.59-.56-1.9Z"/>
      <path class="cls-1" d="M14.01,34.02c2.06-.61,1.51,2.57-.1,1.78-.79-.39-.65-1.56.1-1.78Z"/>
      <path class="cls-1" d="M70.68,32.88c.15-.29,1.52-2.29,1.75-1.2.1.46-1.47,1.42-1.75,1.2Z"/>
      <path class="cls-1" d="M54.44,32.88c-1.45.36-1.33-1.4-.33-1.09.36.11.37.77.33,1.09Z"/>
      <path class="cls-1" d="M49.9,14.52c-1.22-3.81-4.94-5.13-7.96-2.24V3.51h-3.73c.09.33.66,1.19.66,1.42v24.44c1.3-.15,3.2.68,2.85-1.32,2.07,2.17,5.4,1.72,7.12-.67,2.09-2.91,2.12-9.58,1.06-12.87ZM46.28,26.15c-.52,1.2-1.48,2.33-2.89,1.45-1.6-1-1.58-7.88-1.46-9.74.08-1.31.45-4.16,1.4-5.07.97-.94,2.06-.52,2.74.51,1.82,2.73,1.49,9.9.21,12.85Z"/>
      <path class="cls-1" d="M35.79,27.08c-.46-4.32.43-9.33-.09-13.72-.96-4.12-10.46-3.85-9.51,2.04.04.26.4,1.22.65,1.33.85.38,2.56.29,2.93-.72.38-1.03-.4-.43-.89-1.12-1.43-2.02,1.36-4.46,3.05-2.61.9.98,1,3.84.72,5.09-.34,1.51-3.81,2.02-5.03,2.64-3.62,1.83-3.47,9.94,2.13,9.36,1.59-.16,2.06-1.07,3.18-1.97-.03.24.12,1.97.22,1.97h3.51c-.45-.68-.79-1.48-.88-2.3ZM32.72,24.88c0,.08-.47,1.22-.57,1.4-1.54,2.88-3.83.88-3.83-1.84,0-3.11,2.03-3.87,4.4-5.15v5.59Z"/>
      <path class="cls-1" d="M58.12,10.58c-7.83,1.23-7.49,18.17-.05,19.02,10.47,1.2,9.86-20.56.05-19.02ZM59.16,28.51c-2.49.11-3.49-4.37-3.62-6.25-.18-2.4-.03-10.41,3.44-10.58,2.55-.13,3.47,4.96,3.59,6.83.15,2.26-.2,9.86-3.41,10Z"/>
      <path class="cls-1" d="M95.25,10.86c-2.05-.69-4.26-.21-5.84,1.28-4.91,4.65-3.36,19.17,5.42,17.36,6.59-1.36,7.05-16.4.42-18.64ZM94.8,27.93c-3.36,2.9-4.89-4.21-5.04-6.33-.15-2.22.34-9.76,3.44-9.92,1.95-.1,2.98,2.75,3.31,4.27.61,2.87.69,9.91-1.71,11.98Z"/>
      <path class="cls-1" d="M51.37,34.1c-1.03-.47-1.52.24-1.86.24-.19,0-.74-.58-1.21-.36v8.88s-.33.25-.22.33h1.54c-.32-.99-.21-2.04-.22-3.07,3.4,2.14,3.96-5.12,1.97-6.02ZM50.36,40.11c-1.39.24-1.15-5.26-.5-5.66,1.89-1.16,1.99,5.4.5,5.66Z"/>
      <path class="cls-1" d="M62.5,33.81c-2.91.29-2.97,7,.38,6.76,3.12-.22,2.7-7.07-.38-6.76ZM62.67,40.35c-1.53,0-1.78-5.67-.17-6.11,1.2-.33,1.6,2.03,1.62,2.93.01.78-.38,3.18-1.44,3.18Z"/>
      <path class="cls-1" d="M71.4,39.47c-1.43.87-2.06-1.06-2.04-2.2,6.11-.12.97-6.47-.76-1.75-.45,1.21-.41,2.45.06,3.66.96,2.49,3.73,1.3,3.56-1.03-.44.18-.33,1.03-.81,1.32ZM71.34,34.98c.25,1.56-.84,1.66-1.97,2.07-.49-1.28,1.6-4.36,1.97-2.07Z"/>
    </g>
  </g>
</svg>