<?xml version="1.0" encoding="UTF-8"?>
<svg id="Camada_2" data-name="Camada 2" xmlns="http://www.w3.org/2000/svg" viewBox="0 0 75 47.96">
  <defs>
    <style>
      .cls-1 {
        fill: #fff;
      }
    </style>
  </defs>
  <g id="Camada_2-2" data-name="Camada 2">
    <g>
      <g>
        <g>
          <path class="cls-1" d="M7.49,26.26c1.47,0,4.07.31,6.04.68v.4s-3.45-.4-6.04-.4c-4.15,0-6.18,1.98-6.18,9.88,0,6.44,1.92,9.83,6.21,9.83,2.97,0,6.02-.34,6.02-.34v.4c-1.98.37-4.58.62-6.04.62-5.22,0-6.86-4.49-6.86-10.56,0-6.5,1.13-10.51,6.86-10.51"/>
          <path class="cls-1" d="M7.49,47.63c-4.82,0-7.16-3.55-7.16-10.86,0-6.67,1.2-10.8,7.16-10.8,1.4,0,3.97.29,6.1.68.14.03.24.15.24.29v.4c0,.16-.13.3-.3.3,0,0-.05,0-.13-.01-1.34-.14-3.88-.38-5.92-.38-3.73,0-5.89,1.57-5.89,9.59,0,6.41,1.93,9.53,5.91,9.53,2.91,0,5.95-.33,5.98-.34.08,0,.17.02.23.07.06.06.1.14.1.22v.4c0,.14-.1.27-.24.29-1.92.36-4.54.63-6.1.63ZM7.49,26.56c-5.49,0-6.56,3.74-6.56,10.21,0,6.91,2.15,10.26,6.56,10.26.71,0,1.65-.06,2.64-.15-.82.04-1.72.07-2.61.07-4.38,0-6.51-3.31-6.51-10.13,0-7.42,1.76-10.18,6.48-10.18.81,0,1.71.04,2.58.09-1.01-.11-1.92-.17-2.58-.17Z"/>
        </g>
        <g>
          <path class="cls-1" d="M7.49,47.67c-2.58,0-4.49-1.07-5.68-3.17-1.02-1.81-1.52-4.33-1.52-7.72,0-3.77.41-6.19,1.32-7.85,1.11-2.01,3.03-2.99,5.87-2.99,1.59,0,4.28.34,6.1.68l.27.05v1.01h-.33s-.05,0-.13-.01c-1.34-.14-3.88-.38-5.91-.38-2.15,0-3.5.57-4.38,1.83-1.01,1.45-1.48,3.91-1.48,7.72,0,6.39,1.92,9.5,5.88,9.5,2.91,0,5.95-.33,5.98-.34l.37-.04v1.04l-.27.05c-1.92.36-4.55.63-6.1.63M7.49,26.6c-5.46,0-6.53,3.73-6.53,10.17,0,6.88,2.14,10.23,6.53,10.23.23,0,.49,0,.76-.02-.24,0-.49,0-.73,0-4.4,0-6.55-3.32-6.55-10.16,0-7.45,1.77-10.22,6.52-10.22.24,0,.48,0,.72,0-.27-.01-.51-.02-.72-.02"/>
          <path class="cls-1" d="M7.49,47.96c-2.7,0-4.69-1.12-5.94-3.33-1.05-1.85-1.55-4.43-1.55-7.87,0-3.82.42-6.29,1.36-7.99,1.16-2.12,3.17-3.14,6.13-3.14,1.61,0,4.32.35,6.16.69l.27.05c.14.03.24.15.24.29v1.01c0,.16-.13.3-.3.3h-.33s-.06,0-.16-.01c-1.33-.14-3.86-.38-5.88-.38s-3.31.53-4.13,1.7c-.97,1.4-1.42,3.8-1.42,7.55,0,6.19,1.83,9.2,5.58,9.2,2.91,0,5.92-.33,5.95-.34l.37-.04c.09,0,.17.02.23.07.06.06.1.14.1.22v1.04c0,.14-.1.27-.24.29l-.27.05c-1.94.36-4.59.63-6.16.63ZM7.49,26.23c-2.73,0-4.56.93-5.61,2.84-.89,1.61-1.29,3.99-1.29,7.71,0,3.34.48,5.82,1.48,7.58,1.13,2.01,2.96,3.02,5.42,3.02,1.54,0,4.14-.27,6.05-.62h.03v-.47h-.04s-3.07.34-6.01.34c-4.16,0-6.18-3.2-6.18-9.79,0-3.88.49-6.38,1.53-7.89.94-1.36,2.36-1.96,4.62-1.96,2.05,0,4.6.24,5.95.39.06,0,.1,0,.11.01h.02v-.46h-.03c-1.81-.34-4.48-.68-6.05-.68ZM7.49,47.3c-4.59,0-6.83-3.44-6.83-10.53,0-6.46,1.14-10.47,6.83-10.47.22,0,.47,0,.74.02.16,0,.29.15.28.31,0,.16-.13.3-.31.29-.24,0-.48,0-.72,0-4.59,0-6.22,2.6-6.22,9.92,0,6.64,2.04,9.86,6.25,9.86.24,0,.49,0,.73,0h0c.16,0,.29.13.3.29,0,.16-.12.3-.29.31-.28.01-.54.02-.77.02Z"/>
        </g>
        <g>
          <path class="cls-1" d="M24.1,26.49h.96l7.4,20.67h-.73l-2.57-7.15h-9.4l-2.65,7.15h-.73l7.74-20.67ZM28.9,39.34l-4.32-12.17-4.58,12.17h8.9Z"/>
          <path class="cls-1" d="M32.46,47.46h-.73c-.13,0-.24-.08-.28-.2l-2.5-6.95h-8.99l-2.58,6.95c-.04.12-.15.19-.28.19h-.73c-.1,0-.19-.05-.24-.13-.06-.08-.07-.18-.03-.27l7.74-20.67c.04-.12.15-.19.28-.19h.96c.13,0,.24.08.28.2l7.4,20.67c.03.09.02.19-.04.27s-.15.13-.24.13ZM31.94,46.87h.1l-7.19-20.08h-.54l-7.52,20.08h.1l2.58-6.95c.04-.12.15-.19.28-.19h9.4c.13,0,.24.08.28.2l2.5,6.95ZM28.9,39.64h-8.9c-.1,0-.19-.05-.25-.13-.06-.08-.07-.18-.03-.27l4.58-12.17c.04-.12.17-.19.28-.19.13,0,.24.08.28.2l4.32,12.17c.03.09.02.19-.04.27-.06.08-.15.13-.24.13ZM20.44,39.04h8.04l-3.91-11.01-4.14,11.01Z"/>
        </g>
        <g>
          <path class="cls-1" d="M32.93,47.5h-1.44l-2.57-7.15h-8.94l-2.65,7.15h-1.45l7.99-21.34h1.43l7.64,21.34ZM31.96,46.83h.03l-7.16-20.01h-.01l4.56,12.85h-9.85l4.83-12.85h-.02l-7.49,20.01h.02l2.66-7.15h9.87l2.57,7.15ZM20.49,39.01h7.94l-3.86-10.87-4.09,10.87Z"/>
          <path class="cls-1" d="M32.93,47.79h-1.44c-.13,0-.24-.08-.28-.2l-2.5-6.95h-8.52l-2.58,6.95c-.04.12-.15.19-.28.19h-1.45c-.1,0-.19-.05-.24-.13-.06-.08-.07-.18-.03-.27l7.99-21.34c.04-.12.15-.19.28-.19h1.43c.13,0,.24.08.28.2l7.64,21.34c.03.09.02.19-.04.27s-.15.13-.24.13ZM31.7,47.2h.81l-7.42-20.74h-1.01l-7.76,20.74h.81l2.58-6.95c.04-.12.15-.19.28-.19h8.94c.13,0,.24.08.28.2l2.5,6.95ZM31.99,47.13c-.13,0-.26-.08-.31-.2l-2.5-6.95h-9.45l-2.58,6.95c-.04.12-.15.19-.28.19-.1,0-.2-.05-.26-.13-.06-.08-.08-.18-.05-.27l7.49-20.01c.04-.12.15-.19.28-.19.09,0,.19.04.25.11.13-.17.46-.12.53.08l7.16,20.01c.03.09.02.19-.04.27s-.15.13-.24.13ZM19.96,39.38h9l-4.37-12.31-4.63,12.31ZM28.43,39.31h-7.94c-.1,0-.19-.05-.25-.13-.06-.08-.07-.18-.03-.27l4.09-10.87c.04-.12.16-.19.28-.19h0c.13,0,.24.08.28.2l3.86,10.87c.03.09.02.19-.04.27-.06.08-.15.13-.24.13ZM20.92,38.71h7.09l-3.44-9.7-3.65,9.7Z"/>
        </g>
        <g>
          <polygon class="cls-1" points="36.3 26.49 37.01 26.49 49.43 45.86 49.43 26.49 50.11 26.49 50.11 47.16 49.43 47.16 36.98 27.79 36.98 47.16 36.3 47.16 36.3 26.49"/>
          <path class="cls-1" d="M50.11,47.46h-.68c-.1,0-.2-.05-.25-.14l-11.91-18.52v18.36c0,.16-.13.3-.3.3h-.68c-.16,0-.3-.13-.3-.3v-20.67c0-.16.13-.3.3-.3h.71c.1,0,.2.05.25.14l11.88,18.52v-18.36c0-.16.13-.3.3-.3h.68c.16,0,.3.13.3.3v20.67c0,.16-.13.3-.3.3ZM49.6,46.87h.22v-20.08h-.08v19.08c0,.13-.09.25-.21.29-.13.04-.26-.01-.33-.13l-12.34-19.24h-.24v20.08h.08v-19.08c0-.13.09-.25.21-.29.13-.04.26.01.33.12l12.37,19.24Z"/>
        </g>
        <g>
          <path class="cls-1" d="M50.45,47.5h-1.19l-11.94-18.57v18.57h-1.34v-21.34h1.22l11.91,18.57v-18.57h1.34v21.34ZM49.77,46.83h.01v-20.01h-.01v20.01ZM49.62,46.83h.04l-12.83-20.01h-.07l12.86,20.01ZM36.64,46.83h.01v-20.01h-.01v20.01Z"/>
          <path class="cls-1" d="M50.45,47.79h-1.19c-.1,0-.2-.05-.25-.14l-11.39-17.72v17.56c0,.16-.13.3-.3.3h-1.34c-.16,0-.3-.13-.3-.3v-21.34c0-.16.13-.3.3-.3h1.22c.1,0,.2.05.25.14l11.36,17.71v-17.55c0-.16.13-.3.3-.3h1.34c.16,0,.3.13.3.3v21.34c0,.16-.13.3-.3.3ZM49.42,47.2h.73v-20.74h-.75v18.27c0,.13-.09.25-.21.29-.13.04-.26-.01-.33-.13l-11.82-18.43h-.76v20.74h.75v-18.27c0-.13.09-.25.21-.29.13-.04.26.01.33.12l11.85,18.44ZM49.78,47.13s-.04,0-.06,0c-.02,0-.04,0-.06,0h-.04c-.1,0-.2-.05-.25-.14l-12.42-19.32v19.16c0,.16-.13.3-.3.3s-.31-.13-.31-.3v-20.01c0-.19.18-.33.36-.29.02,0,.04,0,.06,0h.07c.1,0,.2.05.25.14l12.39,19.32v-19.16c0-.16.13-.3.3-.3s.31.13.31.3v20.01c0,.16-.13.3-.3.3Z"/>
        </g>
        <g>
          <polygon class="cls-1" points="54.49 26.49 61.64 46.49 69.12 26.49 69.85 26.49 62.12 47.16 61.16 47.16 53.76 26.49 54.49 26.49"/>
          <path class="cls-1" d="M62.12,47.46h-.96c-.13,0-.24-.08-.28-.2l-7.4-20.67c-.03-.09-.02-.19.04-.27s.15-.13.24-.13h.73c.13,0,.24.08.28.2l6.87,19.23,7.2-19.23c.04-.12.15-.19.28-.19h.73c.1,0,.19.05.24.13.06.08.07.18.03.27l-7.74,20.67c-.04.12-.15.19-.28.19ZM61.37,46.87h.54l7.51-20.08h-.1l-7.41,19.8c-.04.12-.17.2-.28.19-.13,0-.24-.08-.28-.2l-7.07-19.8h-.1l7.19,20.08Z"/>
        </g>
        <g>
          <path class="cls-1" d="M62.35,47.5h-1.43l-7.64-21.34h1.44l6.92,19.36,7.25-19.36h1.45l-7.99,21.34ZM61.86,46.83h.02l7.49-20.01h-.02l-7.49,20.01ZM61.39,46.83h.01l-7.15-20.01h-.03l7.16,20.01Z"/>
          <path class="cls-1" d="M62.35,47.79h-1.43c-.13,0-.24-.08-.28-.2l-7.64-21.34c-.03-.09-.02-.19.04-.27s.15-.13.24-.13h1.44c.13,0,.24.08.28.2l6.64,18.59,6.96-18.6c.04-.12.15-.19.28-.19h1.45c.1,0,.19.05.24.13.06.08.07.18.03.27l-7.99,21.34c-.04.12-.15.19-.28.19ZM61.13,47.2h1.01l7.76-20.74h-.81l-7.17,19.17c-.04.12-.15.19-.28.19h0c-.13,0-.24-.08-.28-.2l-6.85-19.16h-.81l7.42,20.74ZM61.89,47.13c-.09,0-.19-.04-.25-.11-.13.17-.46.12-.53-.08l-7.16-20.01c-.03-.09-.02-.19.04-.27s.15-.13.24-.13c.13,0,.26.08.31.2l7.1,19.87,7.44-19.87c.04-.12.15-.19.28-.19.1,0,.2.05.26.13.06.08.08.18.05.27l-7.49,20.01c-.04.12-.15.19-.28.19Z"/>
        </g>
        <g>
          <rect class="cls-1" x="73.7" y="26.49" width=".68" height="20.67"/>
          <path class="cls-1" d="M74.37,47.46h-.68c-.16,0-.3-.13-.3-.3v-20.67c0-.16.13-.3.3-.3h.68c.16,0,.3.13.3.3v20.67c0,.16-.13.3-.3.3ZM73.99,46.87h.08v-20.08h-.08v20.08Z"/>
        </g>
        <g>
          <path class="cls-1" d="M74.71,47.5h-1.34v-21.34h1.34v21.34ZM74.03,46.83h.01v-20.01h-.01v20.01Z"/>
          <path class="cls-1" d="M74.71,47.79h-1.34c-.16,0-.3-.13-.3-.3v-21.34c0-.16.13-.3.3-.3h1.34c.16,0,.3.13.3.3v21.34c0,.16-.13.3-.3.3ZM73.66,47.2h.75v-20.74h-.75v20.74ZM74.04,47.13c-.16,0-.31-.13-.31-.3v-20.01c0-.16.13-.3.3-.3s.31.13.31.3v20.01c0,.16-.13.3-.3.3Z"/>
        </g>
      </g>
      <g>
        <polygon class="cls-1" points="48.52 6.64 48.52 10.75 37.46 22.37 26.51 10.75 26.48 6.64 37.46 18.29 48.52 6.64"/>
        <polygon class="cls-1" points="48.52 6.64 48.5 2.85 45.54 0 29.42 0 26.48 2.85 26.48 6.64 29.47 3.67 45.54 3.67 48.52 6.64"/>
      </g>
    </g>
  </g>
</svg>