<svg width="100" height="64" viewBox="0 0 100 64" fill="none" xmlns="http://www.w3.org/2000/svg">
<path d="M9.9901 35.0187C11.948 35.0187 15.4135 35.4327 18.0483 35.9222V36.4507C18.0119 36.4507 13.4555 35.9222 9.9901 35.9222C4.45479 35.9222 1.74442 38.5571 1.74442 49.1018C1.74442 57.6885 4.30378 62.2058 10.0292 62.2058C13.9841 62.2058 18.0509 61.7528 18.0509 61.7528V62.2787C15.4161 62.7682 11.9506 63.1067 9.9927 63.1067C3.0254 63.1067 0.843567 57.1183 0.843567 49.0236C0.843567 40.364 2.35107 35.0161 9.9927 35.0161" fill="white"/>
<path d="M9.99012 63.505C3.56437 63.505 0.442627 58.769 0.442627 49.0236C0.442627 40.1297 2.03865 34.6178 9.99012 34.6178C11.8621 34.6178 15.2807 35.0005 18.1212 35.5291C18.3087 35.5629 18.4467 35.7295 18.4467 35.9196V36.4481C18.4467 36.6668 18.2696 36.8465 18.0483 36.8465C18.0431 36.8465 17.9858 36.8413 17.8791 36.8309C16.0956 36.6408 12.7005 36.318 9.99012 36.318C5.0198 36.318 2.14019 38.4087 2.14019 49.0992C2.14019 57.6495 4.72038 61.8074 10.0266 61.8074C13.9112 61.8074 17.9624 61.3622 18.0041 61.357C18.116 61.344 18.228 61.3804 18.3139 61.456C18.3972 61.5315 18.4467 61.6382 18.4467 61.7528V62.2787C18.4467 62.4714 18.3113 62.6354 18.1212 62.6692C15.5567 63.1457 12.0626 63.505 9.99012 63.505ZM9.99012 35.4145C2.66873 35.4145 1.23673 40.4056 1.23673 49.0236C1.23673 58.2327 4.10072 62.7083 9.99012 62.7083C10.9378 62.7083 12.1902 62.6302 13.5128 62.5026C12.4141 62.5599 11.2138 62.6015 10.0292 62.6015C4.18664 62.6015 1.34869 58.1858 1.34869 49.0992C1.34869 39.2028 3.69195 35.5239 9.99272 35.5239C11.0784 35.5239 12.2735 35.5733 13.4295 35.6462C12.0886 35.5004 10.8675 35.4145 9.99272 35.4145H9.99012Z" fill="white"/>
<path d="M9.99008 63.5519C6.55069 63.5519 4.00174 62.1277 2.41613 59.321C1.05704 56.9126 0.395721 53.5461 0.395721 49.0262C0.395721 44.0039 0.939879 40.7754 2.15838 38.5597C3.63463 35.8779 6.1966 34.5735 9.99008 34.5735C12.112 34.5735 15.692 35.0318 18.129 35.4848L18.4909 35.5525V36.8934H18.0457C18.0457 36.8934 17.9806 36.8882 17.8713 36.8777C16.0904 36.6877 12.6952 36.3648 9.98748 36.3648C7.12349 36.3648 5.32438 37.1199 4.15275 38.8096C2.80928 40.7467 2.18441 44.0169 2.18441 49.0992C2.18441 57.6182 4.74898 61.7606 10.0239 61.7606C13.9085 61.7606 17.9546 61.3154 17.9962 61.3101L18.4883 61.2555V62.6484L18.1264 62.7161C15.5618 63.1926 12.0626 63.5519 9.98748 63.5519M9.99008 35.4614C2.70774 35.4614 1.28356 40.4343 1.28356 49.0236C1.28356 58.2014 4.13192 62.6614 9.99008 62.6614C10.2999 62.6614 10.641 62.6536 11.0055 62.638C10.68 62.6432 10.352 62.6458 10.0265 62.6458C4.15275 62.6458 1.29918 58.2144 1.29918 49.0965C1.29918 39.1663 3.65546 35.4744 9.99008 35.4744C10.3051 35.4744 10.628 35.4796 10.956 35.4874C10.6019 35.4692 10.2765 35.4614 9.99008 35.4614Z" fill="white"/>
<path d="M9.99011 63.9502C6.39711 63.9502 3.73099 62.4583 2.06988 59.5163C0.676942 57.048 0 53.6164 0 49.0236C0 43.931 0.559779 40.6426 1.81212 38.367C3.36649 35.5473 6.04041 34.1752 9.99011 34.1752C12.1381 34.1752 15.7467 34.636 18.2019 35.0917L18.5664 35.1593C18.7539 35.1932 18.8919 35.3598 18.8919 35.5499V36.8908C18.8919 37.1095 18.7149 37.2891 18.4935 37.2891H18.0483C18.0483 37.2891 17.9676 37.2865 17.8322 37.2709C16.0592 37.0808 12.6823 36.7606 9.99011 36.7606C7.29796 36.7606 5.57176 37.4609 4.48344 39.0335C3.18944 40.9003 2.5854 44.1002 2.5854 49.0965C2.5854 57.3474 5.01979 61.3596 10.0266 61.3596C13.9034 61.3596 17.9129 60.917 17.952 60.9118L18.4467 60.8571C18.5612 60.8441 18.6706 60.8806 18.7565 60.9561C18.8398 61.0316 18.8893 61.1383 18.8893 61.2529V62.6458C18.8893 62.8385 18.7539 63.0025 18.5638 63.0364L18.1993 63.104C15.6113 63.5831 12.0808 63.9476 9.9875 63.9476L9.99011 63.9502ZM9.99011 34.9719C6.35545 34.9719 3.90804 36.2086 2.50729 38.7523C1.32264 40.9055 0.794105 44.0742 0.794105 49.0263C0.794105 53.4758 1.4372 56.7798 2.76245 59.1257C4.27255 61.7996 6.70433 63.1561 9.99011 63.1561C12.0418 63.1561 15.5098 62.7994 18.0561 62.3282L18.0952 62.3204V61.7033L18.0431 61.7085C18.0067 61.7137 13.9502 62.1589 10.0266 62.1589C4.48344 62.1589 1.78869 57.8864 1.78869 49.1018C1.78869 43.9336 2.43699 40.5931 3.82733 38.5857C5.07967 36.7762 6.98032 35.9691 9.9875 35.9691C12.7161 35.9691 16.1269 36.2919 17.9155 36.482C17.9989 36.4898 18.0509 36.495 18.0665 36.495H18.0952V35.8805L18.0561 35.8727C15.6374 35.4223 12.0886 34.9693 9.99011 34.9693V34.9719ZM9.99011 63.0624C3.86378 63.0624 0.887836 58.4722 0.887836 49.0263C0.887836 40.4083 2.41096 35.0656 9.99011 35.0656C10.2817 35.0656 10.615 35.076 10.9743 35.0943C11.1904 35.1047 11.3596 35.2895 11.3518 35.5056C11.344 35.7217 11.1748 35.9014 10.9456 35.8884C10.6202 35.8805 10.2999 35.8753 9.99011 35.8753C3.86638 35.8753 1.69756 39.3356 1.69756 49.1018C1.69756 57.9515 4.42356 62.2527 10.0292 62.2527C10.352 62.2527 10.6775 62.2501 11.0003 62.2449H11.0081C11.2216 62.2449 11.3987 62.4141 11.4065 62.6302C11.4117 62.8489 11.2425 63.0311 11.0264 63.039C10.654 63.0546 10.3077 63.0624 9.99271 63.0624H9.99011Z" fill="white"/>
<path d="M32.1313 35.3182H33.4123L43.2775 62.8827H42.2985L38.8721 53.3561H26.3331L22.7921 62.8827H21.8132L32.1313 35.3182ZM38.531 52.4526L32.7692 36.2242L26.6689 52.4526H38.531Z" fill="white"/>
<path d="M43.2774 63.2811H42.2985C42.1318 63.2811 41.9808 63.1769 41.9235 63.0181L38.5909 53.7544H26.609L23.1644 63.0233C23.1071 63.1796 22.9587 63.2837 22.7921 63.2837H21.8131C21.683 63.2837 21.5606 63.2186 21.4877 63.1119C21.4122 63.0051 21.3966 62.8671 21.4408 62.7447L31.759 35.1802C31.8163 35.024 31.9647 34.9224 32.1313 34.9224H33.4123C33.5789 34.9224 33.7299 35.0266 33.7872 35.1854L43.6523 62.75C43.6966 62.8723 43.6784 63.0077 43.6029 63.1119C43.5274 63.216 43.4076 63.2811 43.2774 63.2811ZM42.577 62.4844H42.7124L33.1311 35.7165H32.4073L22.3885 62.4844H22.5187L25.9633 53.2155C26.0206 53.0593 26.169 52.9551 26.3356 52.9551H38.8747C39.0413 52.9551 39.1923 53.0593 39.2496 53.2181L42.5823 62.4818L42.577 62.4844ZM38.531 52.8484H26.6689C26.5387 52.8484 26.4164 52.7833 26.3408 52.6765C26.2679 52.5698 26.2497 52.4318 26.2966 52.3094L32.3969 36.081C32.4568 35.9248 32.626 35.8259 32.7718 35.8233C32.9384 35.8233 33.0868 35.93 33.1441 36.0888L38.9059 52.3172C38.9502 52.4396 38.9294 52.575 38.8565 52.6791C38.7836 52.7859 38.6612 52.8484 38.531 52.8484ZM27.2443 52.0543H37.9686L32.7588 37.3802L27.2443 52.0543Z" fill="white"/>
<path d="M43.9075 63.3254H41.986L38.5597 53.7987H26.6429L23.102 63.3254H21.1727L31.8241 34.873H33.7247L43.9075 63.3254ZM42.6109 62.4375H42.6474L33.0999 35.7634H33.0816L39.1637 52.8952H26.031L32.4724 35.7634H32.4412L22.4563 62.4375H22.4849L26.0258 52.9109H39.1871L42.6135 62.4375H42.6109ZM27.312 52.0074H37.9036L32.7588 37.5182L27.312 52.0074Z" fill="white"/>
<path d="M43.9075 63.7237H41.986C41.8194 63.7237 41.6684 63.6196 41.6111 63.4607L38.2785 54.197H26.9162L23.4717 63.4659C23.4144 63.6222 23.266 63.7263 23.0993 63.7263H21.17C21.0399 63.7263 20.9175 63.6612 20.8446 63.5545C20.7691 63.4477 20.7535 63.3097 20.7977 63.1874L31.4492 34.735C31.5064 34.5787 31.6548 34.4772 31.8215 34.4772H33.7221C33.8888 34.4772 34.0398 34.5813 34.097 34.7402L44.2798 63.1926C44.3241 63.3149 44.3059 63.4503 44.2304 63.5545C44.1548 63.6586 44.0351 63.7237 43.9049 63.7237H43.9075ZM42.2646 62.9296H43.3425L33.4435 35.2739H32.0975L21.7454 62.9296H22.8233L26.2679 53.6607C26.3252 53.5045 26.4736 53.4003 26.6403 53.4003H38.5571C38.7237 53.4003 38.8747 53.5045 38.932 53.6633L42.2646 62.927V62.9296ZM42.6447 62.8359C42.4781 62.8359 42.2906 62.7317 42.236 62.5729L38.9033 53.3092H26.2992L22.8546 62.5755C22.7973 62.7317 22.6489 62.8359 22.4823 62.8359C22.3521 62.8359 22.2141 62.7708 22.1412 62.664C22.0657 62.5573 22.0345 62.4193 22.0813 62.2969L32.0662 35.6228C32.1235 35.4666 32.2719 35.365 32.4385 35.365C32.5609 35.365 32.6885 35.4223 32.7666 35.516C32.9462 35.2895 33.3758 35.3546 33.4722 35.628L43.0197 62.3021C43.0639 62.4245 43.0457 62.5599 42.9702 62.664C42.8947 62.7682 42.7749 62.8333 42.6447 62.8333V62.8359ZM26.6038 52.4995H38.5987L32.7718 36.0888L26.6038 52.4995ZM37.9035 52.4058H27.312C27.1818 52.4058 27.0594 52.3407 26.9839 52.2339C26.911 52.1272 26.8928 51.9892 26.9397 51.8668L32.3865 37.3776C32.4463 37.2214 32.5921 37.1199 32.7588 37.1199H32.7614C32.928 37.1199 33.0764 37.2266 33.1337 37.3854L38.2785 51.8746C38.3227 51.997 38.3019 52.1324 38.229 52.2365C38.1561 52.3433 38.0337 52.4058 37.9035 52.4058ZM27.8874 51.609H37.3412L32.7484 38.6742L27.8874 51.609Z" fill="white"/>
<path d="M48.3988 35.3182H49.3387L65.9081 61.1487V35.3182H66.8116V62.8827H65.9081L49.3022 37.0496V62.8827H48.3988V35.3182Z" fill="white"/>
<path d="M66.8116 63.2811H65.9081C65.7727 63.2811 65.6478 63.2134 65.5749 63.0988L49.7006 38.4061V62.8853C49.7006 63.104 49.5235 63.2837 49.3022 63.2837H48.3988C48.18 63.2837 48.0004 63.1066 48.0004 62.8853V35.3208C48.0004 35.1021 48.1774 34.9224 48.3988 34.9224H49.3413C49.4767 34.9224 49.6016 34.9901 49.6771 35.1047L65.5124 59.7948V35.3208C65.5124 35.1021 65.6894 34.9224 65.9107 34.9224H66.8142C67.0329 34.9224 67.2125 35.0995 67.2125 35.3208V62.8853C67.2125 63.104 67.0355 63.2837 66.8142 63.2837L66.8116 63.2811ZM66.1242 62.4844H66.4132V35.7165H66.3039V61.1513C66.3039 61.3284 66.1867 61.482 66.0175 61.5315C65.8482 61.5809 65.666 61.5132 65.5723 61.3648L49.1226 35.7165H48.7971V62.4844H48.9065V37.0496C48.9065 36.8725 49.0236 36.7189 49.1929 36.6694C49.3621 36.62 49.5443 36.6877 49.6381 36.8361L66.1268 62.4844H66.1242Z" fill="white"/>
<path d="M67.2568 63.3254H65.666L49.7474 38.5623V63.3254H47.9561V34.873H49.5834L65.4655 59.6334V34.873H67.2568V63.3254ZM66.3508 62.4375H66.3664V35.7634H66.3508V62.4375ZM66.1503 62.4375H66.2076L49.0991 35.7634H49.0054L66.1529 62.4375H66.1503ZM48.8414 62.4375H48.857V35.7634H48.8414V62.4375Z" fill="white"/>
<path d="M67.2568 63.7237H65.666C65.5306 63.7237 65.4056 63.656 65.3327 63.5415L50.1458 39.9162V63.3254C50.1458 63.5441 49.9688 63.7237 49.7474 63.7237H47.9562C47.7375 63.7237 47.5578 63.5467 47.5578 63.3254V34.8729C47.5578 34.6542 47.7348 34.4746 47.9562 34.4746H49.5834C49.7188 34.4746 49.8438 34.5423 49.9193 34.6568L65.0672 58.2743V34.8703C65.0672 34.6516 65.2442 34.472 65.4655 34.472H67.2568C67.4755 34.472 67.6552 34.649 67.6552 34.8703V63.3228C67.6552 63.5415 67.4781 63.7211 67.2568 63.7211V63.7237ZM65.8821 62.9296H66.8585V35.2739H65.8613V59.636C65.8613 59.8131 65.7441 59.9667 65.5749 60.0161C65.4056 60.0656 65.2234 59.9979 65.1297 59.8495L49.3673 35.2739H48.3545V62.9296H49.3517V38.5649C49.3517 38.3878 49.4689 38.2342 49.6381 38.1848C49.8073 38.1353 49.9896 38.203 50.0833 38.3514L65.8847 62.9322L65.8821 62.9296ZM66.3664 62.8359C66.3377 62.8359 66.3117 62.8333 66.2857 62.8281C66.2596 62.8333 66.2336 62.8359 66.205 62.8359H66.1477C66.0123 62.8359 65.8873 62.7682 65.8144 62.6536L49.2528 36.8934V62.4401C49.2528 62.6588 49.0757 62.8385 48.8544 62.8385C48.6331 62.8385 48.443 62.6614 48.443 62.4401V35.766C48.443 35.5186 48.6826 35.3286 48.9221 35.3754C48.9481 35.3702 48.9742 35.3676 49.0002 35.3676H49.0939C49.2293 35.3676 49.3543 35.4353 49.4298 35.5499L65.9524 61.3101V35.7634C65.9524 35.5447 66.1295 35.365 66.3508 35.365C66.5721 35.365 66.7647 35.5421 66.7647 35.7634V62.4375C66.7647 62.6562 66.5877 62.8359 66.3664 62.8359Z" fill="white"/>
<path d="M72.6489 35.3182L82.1756 61.9793L92.1527 35.3182H93.1316L82.8161 62.8827H81.5351L71.67 35.3182H72.6489Z" fill="white"/>
<path d="M82.8161 63.2811H81.5351C81.3659 63.2811 81.2175 63.1769 81.1602 63.0181L71.2951 35.4536C71.2508 35.3312 71.269 35.1958 71.3445 35.0917C71.42 34.9875 71.5398 34.9224 71.67 34.9224H72.6489C72.8182 34.9224 72.9666 35.0292 73.0239 35.1854L82.186 60.8233L91.783 35.1802C91.8403 35.024 91.9887 34.9224 92.1553 34.9224H93.1343C93.2644 34.9224 93.3868 34.9875 93.4597 35.0943C93.5352 35.201 93.5508 35.339 93.5066 35.4614L83.191 63.0259C83.1337 63.1822 82.9853 63.2837 82.8187 63.2837L82.8161 63.2811ZM81.8137 62.4844H82.5401L92.5589 35.7165H92.4287L82.5479 62.1199C82.488 62.2761 82.3188 62.3828 82.173 62.3776C82.0064 62.3776 81.858 62.2709 81.8007 62.1147L72.3677 35.7191H72.235L81.8163 62.487L81.8137 62.4844Z" fill="white"/>
<path d="M83.1233 63.3254H81.2227L71.0399 34.873H72.9614L82.186 60.6827L91.8481 34.873H93.7747L83.1259 63.3254H83.1233ZM82.4776 62.4375H82.5089L92.4938 35.7634H92.4625L82.4776 62.4375ZM81.8475 62.4375H81.8658L72.3339 35.7634H72.3L81.8475 62.4375Z" fill="white"/>
<path d="M83.1233 63.7237H81.2227C81.056 63.7237 80.905 63.6196 80.8477 63.4607L70.665 35.0083C70.6207 34.886 70.6389 34.7506 70.7144 34.6464C70.7899 34.5423 70.9097 34.4772 71.0399 34.4772H72.964C73.1332 34.4772 73.2816 34.5839 73.3389 34.7402L82.1964 59.5267L91.4757 34.7324C91.533 34.5761 91.6814 34.4746 91.848 34.4746H93.7747C93.9049 34.4746 94.0273 34.5397 94.1002 34.6464C94.1757 34.7532 94.1913 34.8912 94.147 35.0135L83.4982 63.466C83.4409 63.6222 83.2925 63.7237 83.1259 63.7237H83.1233ZM81.5012 62.9296H82.8473L93.1993 35.2739H92.1214L82.5557 60.8259C82.4984 60.9821 82.35 61.0836 82.1834 61.0836H82.1808C82.0142 61.0836 81.8657 60.9769 81.8085 60.8207L72.6802 35.2739H71.6023L81.5012 62.9296ZM82.5062 62.8359C82.3839 62.8359 82.2563 62.7786 82.1782 62.6849C82.0011 62.9114 81.5689 62.8463 81.4726 62.5729L71.9251 35.8988C71.8808 35.7764 71.8991 35.641 71.9746 35.5369C72.0501 35.4327 72.1699 35.3676 72.3 35.3676C72.4693 35.3676 72.6541 35.4744 72.7088 35.6306L82.173 62.1173L92.0876 35.6254C92.1449 35.4692 92.2933 35.3676 92.4599 35.3676C92.5901 35.3676 92.7281 35.4327 92.801 35.5395C92.8765 35.6462 92.9077 35.7842 92.8609 35.9066L82.876 62.5807C82.8187 62.7369 82.6703 62.8385 82.5036 62.8385L82.5062 62.8359Z" fill="white"/>
<path d="M99.1591 35.3182H98.2556V62.8827H99.1591V35.3182Z" fill="white"/>
<path d="M99.1591 63.2785H98.2556C98.0369 63.2785 97.8572 63.1014 97.8572 62.8801V35.3156C97.8572 35.0969 98.0343 34.9172 98.2556 34.9172H99.1591C99.3778 34.9172 99.5574 35.0943 99.5574 35.3156V62.8801C99.5574 63.0988 99.3804 63.2785 99.1591 63.2785ZM98.6513 62.4844H98.7607V35.7165H98.6513V62.4844Z" fill="white"/>
<path d="M99.6017 63.3254H97.8104V34.873H99.6017V63.3254ZM98.6982 62.4375H98.7138V35.7634H98.6982V62.4375Z" fill="white"/>
<path d="M99.6016 63.7237H97.8103C97.5916 63.7237 97.412 63.5467 97.412 63.3254V34.8729C97.412 34.6542 97.589 34.4746 97.8103 34.4746H99.6016C99.8203 34.4746 100 34.6516 100 34.8729V63.3254C100 63.5441 99.8229 63.7237 99.6016 63.7237ZM98.2087 62.9296H99.2059V35.2739H98.2087V62.9296ZM98.7138 62.8359C98.4951 62.8359 98.3024 62.6588 98.3024 62.4375V35.7634C98.3024 35.5447 98.4795 35.365 98.7008 35.365C98.9221 35.365 99.1122 35.5421 99.1122 35.7634V62.4375C99.1122 62.6562 98.9351 62.8359 98.7138 62.8359Z" fill="white"/>
<path d="M64.6896 8.85492V14.3303L49.9375 29.8245L35.339 14.3303L35.3077 8.85492L49.9375 24.3934L64.6896 8.85492Z" fill="white"/>
<path d="M64.6896 8.85493L64.661 3.80129L60.7113 0H39.2262L35.3077 3.80129V8.85493L39.286 4.88961H60.7113L64.6896 8.85493Z" fill="white"/>
</svg>
