<?xml version="1.0" encoding="UTF-8"?>
<svg id="Camada_2" data-name="Camada 2" xmlns="http://www.w3.org/2000/svg" viewBox="0 0 83.94 61.09">
  <defs>
    <style>
      .cls-1 {
        fill: #fff;
        stroke: #fff;
        stroke-linecap: round;
        stroke-linejoin: round;
        stroke-width: 1px;
      }
    </style>
  </defs>
  <g id="Camada_1-2" data-name="Camada 1">
    <path class="cls-1" d="M76.55,8.47s0,0,0,0c0,0,0,0,0,0,0,0,0,0,0,0,0,0,0,0,0,0,0,0,0,0,0,0,0,0,0,0,0,0,0,0,0,0-.01,0,0,0,0,0,0,0h0s0,0,0,0c0,0,0,0,0,0,0,0,0,0,0,0,0,0,0,0,0,0h0s0,0,0,0,0,0,0,0c0,0,0,0,0,0-.01,0-.02,0-.03-.01,0,0,0,0,0,0,0,0,0,0,0,0,0,0,0,0,0,0,0,0,0,0,0,0,0,0,0,0,0,0,0,0,0,0,0,0,0,0,0,0-.01,0,0,0,0,0,0,0,0,0,0,0,0,0,0,0,0,0-.01,0h0s0,0,0,0c0,0,0,0,0,0,0,0-.01,0-.02,0,0,0,0,0,0,0,0,0,0,0,0,0,0,0,0,0,0,0,0,0,0,0,0,0,0,0,0,0,0,0,0,0,0,0,0,0,0,0,0,0,0,0,0,0,0,0,0,0,0,0,0,0,0,0,0,0-.01,0-.01,0h0s0,0,0,0c0,0,0,0,0,0,0,0,0,0,0,0,0,0,0,0,0,0,0,0,0,0,0,0,0,0,0,0,0,0h0s0,0,0,0c0,0,0,0,0,0,0,0,0,0,0,0,0,0,0,0,0,0,0,0,0,0,0,0,0,0,0,0-.01,0-.04-.01-.07-.03-.12-.04-.02,0-.03-.01-.05-.02-.03,0-.06-.02-.09-.03,0,0,0,0-.01,0-.05-.02-.09-.03-.14-.05-.01,0-.03,0-.04-.01-.03-.01-.08-.03-.11-.04-.11-.04-.23-.08-.36-.13-.05-.02-.1-.04-.16-.06-.18-.06-.36-.13-.57-.2-.07-.03-.15-.05-.23-.08-.19-.07-.38-.14-.59-.21-.06-.02-.12-.04-.18-.06-1.13-.4-2.51-.87-3.99-1.38,0,0-.02,0-.03,0-.54-.18-1.09-.37-1.65-.56-.05-.02-.1-.03-.14-.05-.53-.18-1.07-.36-1.61-.53-.05-.02-.11-.04-.16-.05-.52-.17-1.05-.34-1.56-.51-.07-.02-.13-.04-.2-.06-.51-.16-1.01-.32-1.49-.47-.06-.02-.13-.04-.19-.06-.48-.15-.95-.29-1.4-.42-.06-.02-.11-.03-.17-.05-.45-.13-.87-.25-1.27-.36-.03,0-.06-.02-.09-.03h0c-1.36-.37-2.4-.6-2.9-.6-.66.17-2.6,2.39-4.81,5.19h0s-.05.07-.08.1c-.19.24-.38.49-.58.73-.03.04-.06.08-.1.12-.23.29-.45.58-.68.88-.06.08-.13.17-.19.25-.16.21-.33.43-.49.64-.09.11-.17.23-.26.34-.15.19-.29.38-.43.57-.08.11-.17.22-.25.33-.2.27-.4.53-.6.8-.06.08-.12.16-.18.24-.18.24-.36.48-.53.71-.08.1-.15.2-.23.31-.14.19-.28.37-.41.56-.08.11-.16.22-.25.33-.13.17-.25.34-.38.51-.07.1-.15.2-.22.3-.18.25-.36.5-.54.73-.06.08-.11.15-.16.22-.13.18-.26.35-.38.52-.06.08-.11.15-.17.23-.11.16-.22.3-.33.45-.05.07-.1.14-.15.2-.14.19-.27.37-.39.54,0,0,0,0,0,0-.13.18-.25.35-.36.5-.02.03-.04.05-.06.08-.1.13-.18.25-.25.36,0,0,0,.01-.01.02-.17.23-.28.4-.33.46-.05-.09-.2-.35-.42-.72-.02-.03-.03-.06-.05-.08-.06-.11-.13-.22-.2-.35,0,0,0-.01-.01-.02,0,0-.01-.02-.02-.03-.11-.19-.24-.41-.38-.64-.03-.05-.06-.1-.1-.16-.15-.26-.32-.53-.5-.82-.03-.05-.06-.09-.09-.14-.16-.27-.33-.54-.51-.83-.04-.06-.07-.12-.11-.18-.2-.32-.41-.66-.63-1.01-.05-.08-.1-.15-.15-.23-.2-.31-.4-.64-.62-.97-.04-.06-.08-.12-.11-.18-.24-.37-.49-.75-.74-1.13-.06-.08-.11-.17-.17-.25-.24-.36-.48-.72-.73-1.09-.03-.04-.06-.08-.08-.13-.27-.39-.54-.78-.81-1.18-.03-.04-.06-.09-.09-.13-.02-.03-.04-.06-.06-.08-.43-.62-.87-1.23-1.31-1.83-.03-.04-.07-.09-.1-.13-.47-.63-.93-1.24-1.4-1.82,0,0-.01-.02-.02-.03-.04-.05-.08-.1-.12-.15-.19-.23-.37-.46-.56-.68-.08-.09-.16-.18-.24-.28-.16-.19-.33-.38-.49-.56-.05-.05-.1-.11-.15-.17h0c-1.67-1.83-3.19-3.07-4.3-3.07-.81.02-2.03.3-3.49.74h0s-.07.02-.11.03c-.33.1-.67.21-1.02.32-.05.02-.09.03-.13.04-.37.12-.75.25-1.14.39-.08.03-.16.06-.24.09-.39.14-.78.28-1.18.43-.05.02-.1.04-.15.06-.39.14-.78.29-1.18.44-.03.01-.07.03-.1.04-.02,0-.05.02-.07.03-.22.08-.44.17-.66.26-.08.03-.16.06-.24.09-.6.24-1.21.48-1.81.72-.05.02-.1.04-.15.06-.24.1-.48.2-.72.3-.11.04-.21.09-.31.13-.18.08-.37.15-.55.23-.1.04-.21.09-.31.13-.18.08-.36.15-.54.23-.11.04-.21.09-.31.13-.17.07-.34.15-.51.22-.09.04-.18.08-.27.12-.18.08-.36.15-.54.23-.08.03-.15.07-.23.1-.17.07-.34.15-.5.22-.08.03-.16.07-.24.1-.16.07-.31.13-.46.2-.07.03-.15.07-.22.1-.16.07-.31.13-.45.2-.06.02-.11.05-.17.07-.39.17-.74.33-1.05.47-.07.03-.13.06-.2.09-.09.04-.18.08-.26.11-.06.03-.1.05-.15.07-.06.03-.12.05-.17.08-.06.03-.11.05-.17.08-.04.02-.08.04-.12.05-.01,0-.03.01-.04.02,0,0,0,0,0,0h0s0,0,0,0,0,0,0,0c0,0,0,0,0,0,0,0,0,0,0,0,0,0,0,0,0,0,0,0,0,0,0,0,0,0,0,0,0,0,0,0,0,0,0,0,0,0,0,0,0,0,0,0,0,0,0,0s0,0,0,0c0,0,0,0,0,0,0,0,0,0,0,0,0,0,0,0,0,0,0,0,0,0,0,0,0,0,0,0,0,0,0,0,0,0,0,0,0,0,0,0,0,0,0,0,0,0,0,0,0,0,0,0,0,0s0,0,0,0c0,0,0,0,0,0,0,0-.01,0-.02,0,0,0,0,0,0,0,0,0,0,0,0,0,0,0,0,0,0,0,0,0,0,0,0,0,0,0,0,0,0,0,0,0,0,0,0,0,0,0,0,0,0,0,0,0,0,0,0,0,0,0,0,0,0,0,0,0,0,0,0,0,0,0,0,0,0,0,0,0,0,0,0,0s0,0,0,0h0s0,0,0,0c0,0,0,0,0,0,0,0,0,0,0,0,0,0,0,0,0,0h0s0,0,0,0c0,0,0,0,0,0,0,0,0,0,0,0,0,0,0,0,0,0,0,0,0,0,0,0,0,0,0,0,0,0,0,0,0,0,0,0,0,0,0,0,0,0h0s0,0,0,0c0,0,0,0,0,0,0,0,0,0,0,0,0,0,0,0,0,0,0,0,0,0,0,0,0,0,0,0,0,0,0,0,0,0,0,0,0,0,0,0,0,0,0,0,0,0,0,0,0,0,0,0,0,0h0s0,0,0,0c0,0,0,0,0,0,0,0,0,0,0,0,0,0,0,0,0,0,0,0,0,0,0,0,0,0,0,0,0,0,0,0,0,0,0,0,0,0,0,0,0,0,0,0,0,0,0,0,0,0,0,0,0,0s0,0,0,0c0,0,0,0,0,0,0,0,0,0,0,0,0,0,0,0,0,0,0,0,0,0,0,0s0,0,0,0c0,0,0,0,0,0,0,0,0,0,0,0,0,0,0,0,0,0,0,0,0,0,0,0,0,0,0,0,0,0,0,0,0,0,0,0,0,0,0,0,0,0,0,0,0,0,0,0,0,0,0,0,0,0,0,0,0,0,0,0,0,0,0,0,0,0,0,0,0,0,0,0,0,0,0,0,0,0s0,0,0,0c0,0,0,0,0,0,0,0,0,0,0,0,0,0,0,0,0,0,0,0,0,0,0,0,0,0,0,0,0,0,0,0,0,0,0,0,0,0,0,0,0,0,0,0,0,0,0,0L.5,20.72l7.78,20.57,35.87,19.3,24.76-16.92,14.53-21.23-6.89-13.96ZM15.24,16.5h0s.08-.03.13-.06c-.05.02-.09.04-.13.06ZM15.53,16.38s0,0,.01,0c.05-.02.09-.04.15-.06-.06.03-.11.05-.16.07Z"/>
  </g>
</svg>