<svg width="190" height="100" viewBox="0 0 190 100" fill="none" xmlns="http://www.w3.org/2000/svg">
<path fill-rule="evenodd" clip-rule="evenodd" d="M50 16.6666C41.9458 16.6666 35.4166 23.1958 35.4166 31.25C35.4166 39.3041 41.9458 45.8333 50 45.8333C58.0541 45.8333 64.5833 39.3041 64.5833 31.25C64.5833 23.1958 58.0541 16.6666 50 16.6666ZM27.0833 31.25C27.0833 18.5935 37.3435 8.33331 50 8.33331C62.6565 8.33331 72.9166 18.5935 72.9166 31.25C72.9166 43.9065 62.6565 54.1666 50 54.1666C37.3435 54.1666 27.0833 43.9065 27.0833 31.25ZM38.8594 60.4165C39.0972 60.4165 39.3384 60.4166 39.5833 60.4166H60.4166C60.6615 60.4166 60.9028 60.4165 61.1405 60.4165C66.2542 60.4146 69.7459 60.4133 72.7143 61.3137C79.3726 63.3335 84.5831 68.544 86.6029 75.2023C87.5033 78.1707 87.5021 81.6624 87.5002 86.7761C87.5001 87.0138 87.5 87.2551 87.5 87.5C87.5 89.8012 85.6345 91.6666 83.3333 91.6666C81.0321 91.6666 79.1666 89.8012 79.1666 87.5C79.1666 81.382 79.1214 79.2467 78.6284 77.6214C77.4165 73.6264 74.2902 70.5001 70.2952 69.2882C68.6699 68.7952 66.5346 68.75 60.4166 68.75H39.5833C33.4653 68.75 31.33 68.7952 29.7047 69.2882C25.7097 70.5001 22.5834 73.6264 21.3716 77.6214C20.8785 79.2467 20.8333 81.382 20.8333 87.5C20.8333 89.8012 18.9678 91.6666 16.6666 91.6666C14.3655 91.6666 12.5 89.8012 12.5 87.5C12.5 87.2551 12.4999 87.0138 12.4998 86.7761C12.4979 81.6624 12.4966 78.1707 13.3971 75.2023C15.4169 68.544 20.6273 63.3335 27.2857 61.3137C30.254 60.4133 33.7458 60.4146 38.8594 60.4165Z" fill="white"/>
<path fill-rule="evenodd" clip-rule="evenodd" d="M140 16.6666C131.946 16.6666 125.417 23.1958 125.417 31.25C125.417 39.3041 131.946 45.8333 140 45.8333C148.054 45.8333 154.583 39.3041 154.583 31.25C154.583 23.1958 148.054 16.6666 140 16.6666ZM117.083 31.25C117.083 18.5935 127.343 8.33331 140 8.33331C152.657 8.33331 162.917 18.5935 162.917 31.25C162.917 43.9065 152.657 54.1666 140 54.1666C127.343 54.1666 117.083 43.9065 117.083 31.25ZM128.859 60.4165C129.097 60.4165 129.338 60.4166 129.583 60.4166H150.417C150.662 60.4166 150.903 60.4165 151.141 60.4165C156.254 60.4146 159.746 60.4133 162.714 61.3137C169.373 63.3335 174.583 68.544 176.603 75.2023C177.503 78.1707 177.502 81.6624 177.5 86.7761C177.5 87.0138 177.5 87.2551 177.5 87.5C177.5 89.8012 175.634 91.6666 173.333 91.6666C171.032 91.6666 169.167 89.8012 169.167 87.5C169.167 81.382 169.121 79.2467 168.628 77.6214C167.417 73.6264 164.29 70.5001 160.295 69.2882C158.67 68.7952 156.535 68.75 150.417 68.75H129.583C123.465 68.75 121.33 68.7952 119.705 69.2882C115.71 70.5001 112.583 73.6264 111.372 77.6214C110.879 79.2467 110.833 81.382 110.833 87.5C110.833 89.8012 108.968 91.6666 106.667 91.6666C104.365 91.6666 102.5 89.8012 102.5 87.5C102.5 87.2551 102.5 87.0138 102.5 86.7761C102.498 81.6624 102.497 78.1707 103.397 75.2023C105.417 68.544 110.627 63.3335 117.286 61.3137C120.254 60.4133 123.746 60.4146 128.859 60.4165Z" fill="white"/>
</svg>
