<?xml version="1.0" encoding="UTF-8"?>
<svg id="Camada_2" data-name="Camada 2" xmlns="http://www.w3.org/2000/svg" viewBox="0 0 100 30.59">
  <defs>
    <style>
      .cls-1 {
        fill: #fff;
      }
    </style>
  </defs>
  <g id="Camada_2-2" data-name="Camada 2">
    <g>
      <path class="cls-1" d="M13.75.02H1.28c-.23,0-.42-.02-.61.16-.19.18-.17.34-.17.57v2.33h10.61l-2.23,1.96c-.15.13-.24.23-.24.45,0,.24.09.34.24.49l1.9,1.9,2.98-2.61v7.33H5.4l3.23-2.83-1.87-1.87c-.16-.16-.29-.31-.55-.31s-.41.16-.58.31L.79,12.13c-.48.42-.79.84-.79,1.56,0,1.27.99,1.9,2.12,1.9h14.77V1.72C16.89-.3,15.23.02,13.75.02"/>
      <path class="cls-1" d="M20.06,3.06h8.15l-7.71,8.91c-.45.52-.8.89-.8,1.67,0,.73.38,1.35.98,1.67.36.19.64.21,1.04.21,3.5,0,7-.01,10.5-.01v-3.03h-8.15l8.15-9.41V0h-12.19l.03,3.05Z"/>
      <path class="cls-1" d="M42.91,0h-4.36c-2.27,0-4.13,1.86-4.13,4.13v11.36h3.03v-4.66h6.54v4.66h3.05V4.14C47.04,1.87,45.18,0,42.91,0M43.98,7.79h-6.54v-3.58c0-.64.53-1.15,1.15-1.15h4.25c.64,0,1.15.51,1.15,1.15v3.58Z"/>
      <path class="cls-1" d="M82.73,9.55c.37,0,.74.08,1.1.18.52.15.97.44,1.36.81.07.07.14.14.21.21V0h-3.05v9.56c.13-.01.27-.02.39-.01"/>
      <path class="cls-1" d="M57.71,0h-8.49v15.5h3.03v-4.66h5.46c2.25,0,4.09-1.81,4.13-4.06v-2.71C61.8,1.82,59.96,0,57.71,0M58.79,6.64c0,.64-.51,1.15-1.15,1.15h-5.39V3.06h5.39c.64,0,1.15.51,1.15,1.15v2.43Z"/>
      <path class="cls-1" d="M75.64,14.72c.55-.8,1.16-1.57,1.83-2.24.04-.04.08-.08.13-.13-.38-.19-.64-.59-.64-1.03V0h-3.03v11.36c0,1.37.68,2.6,1.72,3.35"/>
      <path class="cls-1" d="M68.09,12.47c-.62,0-1.15-.53-1.15-1.15V0h-3.03v11.36c0,2.27,1.86,4.13,4.13,4.13h5.65l-.92-3.03h-4.68Z"/>
      <path class="cls-1" d="M95.87,6.23h-4.32c-.62,0-1.15-.51-1.15-1.15v-.87c0-.64.53-1.15,1.15-1.15h6.38L98.85,0h-7.35c-2.27,0-4.13,1.86-4.13,4.13v1.01c0,2.27,1.86,4.13,4.13,4.13h4.29c.64,0,1.15.51,1.15,1.15v.9c0,.62-.51,1.15-1.15,1.15h-7.51l-.7,2.32c.22-.08.44-.16.67-.22.86-.26,1.74-.29,2.63-.13h.04s.04.02.04.02c.3.07.58.19.84.35h.02c.28.19.51.43.69.7h1.74s0-.1-.01-.14c-.02-.4.11-.79.33-1.12l.03-.04.03-.04c.15-.2.33-.38.52-.55l.03-.02.03-.02c.38-.29.84-.48,1.33-.46.2,0,.41.02.61.06l.14.03.18.09c.12.06.23.12.32.2.37.3.57.72.59,1.2,1.01-.76,1.66-1.96,1.66-3.31v-1.01c0-2.27-1.86-4.13-4.13-4.13"/>
      <path class="cls-1" d="M93.63,23.63c-.25-.13-.55-.24-.89-.31-.34-.08-.68-.13-1.02-.16-.34-.03-.65-.05-.94-.06-.29,0-.52-.02-.67-.04-.9-.03-1.82-.01-2.74.06-.92.08-1.79.17-2.6.29-.81.12-1.54.25-2.19.39-.64.14-1.14.26-1.5.34-.1.03-.23.07-.4.1-.17.03-.35.06-.55.09-.2.03-.41.05-.62.06-.21.02-.41.02-.59,0-.3-.02-.6-.06-.89-.14-.29-.08-.57-.19-.82-.34-.5-.3-.87-.75-1.09-1.36-.23-.6-.22-1.38.03-2.32.24-.95.77-2.06,1.6-3.35.82-1.29,2.03-2.76,3.62-4.42.22-.2.43-.38.63-.53.18-.13.38-.24.58-.31.2-.08.39-.1.58-.06.2.05.36.21.46.46.11.26.14.7.09,1.32-.03.55-.18,1.05-.43,1.5-.25.44-.49.79-.73,1.04l-.33.35c-.18.17-.34.24-.46.21-.13-.03-.24-.1-.34-.21-.07-.07-.15-.07-.25,0-.05.03-.08.08-.1.13-.13.2-.19.39-.18.58.02.18.08.35.19.49.11.14.26.25.45.33.19.08.39.11.59.11s.42-.03.67-.08c.24-.05.49-.15.73-.3.24-.15.49-.37.73-.65.24-.28.48-.65.72-1.11.15-.3.27-.64.35-1.03.08-.39.11-.77.09-1.17-.03-.39-.11-.78-.25-1.17-.14-.39-.37-.73-.69-1.03-.3-.28-.61-.47-.93-.57-.32-.09-.6-.14-.85-.14-.1-.02-.36.02-.77.1-.41.08-.93.32-1.55.7-.62.39-1.34.99-2.15,1.81-.81.82-1.67,1.97-2.58,3.44-.7,1.16-1.14,2.19-1.32,3.1-.18.91-.16,1.7.06,2.36.22.66.59,1.21,1.13,1.66.54.44,1.15.77,1.83.99,1.09.33,2.22.43,3.39.28,1.76-.25,3.45-.48,5.06-.69,1.62-.21,3.05-.27,4.31-.19.22.02.49.05.8.1.32.05.63.13.94.24.31.11.6.25.88.41.28.17.48.37.62.6.08.13.18.18.28.14.1-.04.19-.12.28-.24.1-.13.2-.3.3-.5.1-.3.09-.56-.03-.78-.12-.22-.3-.39-.55-.53"/>
      <path class="cls-1" d="M99.89,18.74c-.08-.04-.18-.04-.28.01-.12.07-.25.18-.4.33-.17.17-.34.35-.53.55-.17.18-.35.39-.55.62-.2.23-.42.46-.65.69-.23.23-.43.4-.58.5-.15.1-.29.17-.4.2-.13.03-.24.02-.33-.03-.18-.13-.19-.36-.01-.69.18-.33.44-.73.79-1.22l.38-.5c.07-.1.13-.18.18-.25.03-.05.09-.12.18-.2.03-.05.07-.1.11-.15.04-.05.08-.11.11-.18.25-.4.36-.75.31-1.04-.04-.29-.16-.54-.34-.73-.18-.19-.39-.34-.62-.44-.23-.1-.4-.17-.51-.2.03-.03.05-.06.05-.08.07-.08.13-.18.18-.28.05-.1.1-.19.15-.28.1-.23.15-.45.15-.64s-.07-.34-.2-.44c-.02-.02-.06-.04-.13-.08l-.05-.03c-.08-.02-.23-.03-.44-.04-.21,0-.42.07-.64.24-.13.12-.26.25-.38.4-.12.18-.17.35-.16.49,0,.14.03.28.08.41.04.13.08.26.1.38.03.12,0,.23-.06.35-.12.15-.22.27-.3.36-.08.09-.19.21-.33.36-.28.37-.55.7-.79.99-.15.18-.28.36-.39.54-.07.06-.13.14-.2.23-.15.18-.32.38-.5.58-.15.18-.32.39-.5.6-.18.22-.38.44-.58.68-.2.25-.38.43-.54.53-.16.1-.29.17-.39.2-.13.03-.24.03-.33-.02-.1-.07-.15-.18-.15-.33s.04-.33.11-.54c.08-.21.18-.43.31-.67.13-.23.28-.48.43-.73,0-.02,0-.03.03-.03v-.03l.03-.03s0-.02.03-.02v-.03s0-.03.03-.03v-.03s.06-.08.08-.13c.02-.05.04-.09.08-.13l.03-.03v-.03l.02-.03s0-.02.01-.02.01,0,.01-.03,0-.03.03-.03v-.05c.13-.23.14-.48.03-.73-.12-.25-.39-.44-.83-.58-.23-.08-.45-.05-.65.09-.2.14-.38.31-.53.49-.02,0-.03,0-.03.01,0,0,0,.01-.03.01-.18.23-.46.58-.84,1.03-.38.45-.77.9-1.18,1.33-.41.44-.8.81-1.18,1.12-.38.31-.65.44-.82.39-.2-.07-.28-.22-.25-.45.03-.23.13-.51.3-.82.17-.31.38-.64.64-.98.26-.34.52-.66.77-.94.27-.27.52-.49.75-.68h.03s.06-.05.08-.06c.02,0,.04-.03.08-.06.1-.07.2-.13.29-.2.09-.07.19-.13.29-.18.54-.33,1-.55,1.38-.65.39-.1.65-.13.8-.1.28.03.44.15.48.35v.15c-.02.12.02.19.1.23.03.02.08.03.13.03.03,0,.08-.02.15-.05v-.03c.05-.02.1-.07.15-.15.03-.07.05-.13.06-.18,0-.05.02-.13.04-.25-.02-.27-.08-.49-.19-.65-.11-.17-.23-.29-.36-.38-.17-.1-.35-.18-.55-.23-.75-.13-1.47-.1-2.14.1-.67.2-1.22.44-1.66.7-.05.03-.09.05-.13.06-.03,0-.07.03-.1.06l-.15.1c-.44.3-.83.63-1.17.99-.34.36-.6.69-.77.99-.18.32-.32.66-.41,1.03-.09.37-.12.74-.09,1.11.03.37.14.72.31,1.04.18.33.44.62.79.87.18.12.38.16.58.14.2-.03.41-.1.63-.21.22-.12.43-.27.64-.46.21-.19.41-.4.62-.62.45-.52.91-1.14,1.38-1.86-.13.35-.19.67-.16.95.02.29.1.54.21.78.12.23.26.43.43.59.17.16.33.29.48.39.28.18.58.26.89.24.31-.03.59-.16.84-.41.05-.05.15-.16.3-.34.15-.18.33-.37.53-.59.2-.22.4-.44.6-.67.2-.23.37-.41.5-.57.12-.13.2-.26.24-.36.03-.07.05-.13.07-.19.08-.07.17-.16.26-.27.07-.07.18-.18.33-.35.12-.13.27-.31.46-.54.19-.23.43-.52.72-.87.05-.08.1-.16.16-.23.06-.07.11-.13.16-.2.07-.07.13-.13.18-.19.05-.06.1-.12.15-.19v.03c.08.08.12.18.11.29,0,.11-.04.22-.09.33-.05.11-.1.21-.16.29-.06.08-.1.13-.11.15v.03s-.03.05-.05.06c-.02,0-.03.03-.03.06-.13.18-.26.37-.39.57-.13.19-.26.38-.39.57-.13.23-.25.48-.35.74-.1.26-.18.48-.23.67-.1.54-.05.98.16,1.33.21.35.43.6.67.75.27.18.56.27.87.25.31-.02.6-.15.87-.4.05-.05.17-.16.35-.34.18-.18.39-.37.6-.59.22-.22.44-.44.65-.67.22-.23.39-.41.53-.57.13-.13.23-.26.3-.38.07-.12.12-.22.15-.3.05-.08.08-.16.1-.23.03-.23,0-.37-.08-.41"/>
      <path class="cls-1" d="M73.15,26.19h-.89l-.3,1c-.02.06-.03.12-.03.17,0,.25.24.37.73.37l.48-1.54ZM75.97,27.73c-.14.46-.49.68-1.05.68h-1.62c-.46,0-.69-.15-.69-.44-.31.35-.69.53-1.14.53-.33,0-.6-.1-.81-.31-.21-.21-.31-.47-.31-.8,0-.6.22-1.07.67-1.41.4-.31.9-.47,1.5-.47h2.38l-.7,2.22h1.78ZM70.44,27.73c0,.2-.11.37-.33.5-.19.12-.4.18-.61.18h-1.64c-.43,0-.65-.18-.65-.54,0-.09.02-.19.06-.29l.43-1.39h-.87l-.63,1.23c-.07.21-.21.31-.43.31h-.38l.56-1.54c-.17-.04-.31-.13-.42-.27-.11-.14-.16-.3-.16-.48,0-.33.15-.58.45-.76.25-.15.55-.22.9-.22h.69l-.35,1.04h2.29l-.69,2.22h1.8ZM61.87,28.53c-.18,0-.34.11-.49.32-.15.21-.23.42-.23.63,0,.19.08.34.24.45l.48-1.41ZM62.57,26.19h-.81l-.34,1.09c-.02.07-.03.13-.03.18,0,.24.16.36.48.36.02,0,.05,0,.09,0,.04,0,.07,0,.09,0l.51-1.62ZM65.49,27.73c-.13.46-.57.68-1.3.68h-.78c-.25.69-.5,1.19-.75,1.5-.36.45-.82.68-1.38.68-.32,0-.56-.09-.75-.27-.19-.18-.28-.43-.28-.74,0-.62.18-1.02.54-1.2-.27-.06-.49-.19-.66-.37-.2-.21-.3-.47-.3-.76,0-.12.02-.24.05-.37.12-.46.38-.81.78-1.05.35-.21.78-.32,1.28-.32h2.37l-.78,2.22h1.95ZM59.96,27.73c-.06.22-.2.39-.41.52-.19.11-.41.17-.66.17h-2.38c-1.39,0-2.08-.42-2.08-1.25,0-.54.24-.96.71-1.26.41-.26.89-.39,1.45-.39h.62c.36,0,.68.06.95.17.36.15.55.37.57.68.01.31-.13.56-.44.76h-1.41l.46-.92h-.9l-.35,1.03c-.02.06-.03.11-.03.16,0,.23.19.35.56.35h3.33ZM56.22,23.29c0,.3-.12.54-.35.74-.22.19-.48.29-.79.29s-.56-.09-.78-.28l-1.42,3.94c-.13.38-.37.57-.7.57-.45,0-.71-.19-.8-.58l-.7-3.35-.96,2.83c-.1.3-.29.53-.57.71-.27.17-.56.25-.88.25h-2.03c.13-.31.23-.53.32-.66.17-.25.36-.37.59-.37.14,0,.34.03.62.09.28.06.49.09.63.09.3,0,.51-.18.64-.55l1.31-3.82c.11-.33.21-.54.29-.64.13-.17.34-.26.63-.26.43,0,.71.3.83.91l.58,2.91.89-2.47c.33-.92.83-1.37,1.49-1.37.3,0,.57.09.79.28.24.2.36.45.36.74ZM40.08,26.19h-.89l-.3,1c-.02.06-.03.12-.03.17,0,.25.24.37.73.37l.48-1.54ZM42.9,27.73c-.14.46-.49.68-1.05.68h-1.62c-.46,0-.69-.15-.69-.44-.31.35-.69.53-1.14.53-.33,0-.6-.1-.81-.31-.21-.21-.31-.47-.31-.8,0-.6.22-1.07.67-1.41.4-.31.9-.47,1.5-.47h2.38l-.7,2.22h1.78ZM37.37,27.73c-.13.46-.49.68-1.07.68h-2.18c-.42,0-.63-.15-.63-.45,0-.07.02-.15.05-.24l.48-1.54h-.64l.25-.68c.46-.13.8-.29,1.02-.49.25-.23.52-.63.81-1.22h.84l-.53,1.72h1.03c-.16.46-.5.68-1,.68h-.26l-.47,1.54h2.31ZM33.62,27.73c-.07.25-.24.43-.49.55-.18.09-.37.13-.58.13h-1.71c-.39,0-.59-.13-.59-.39,0-.08.02-.19.06-.3l.29-.92-1.45,1.24c-.34.24-.62.36-.84.36h-.77l.91-2.91h1.53l-.45,1.46,1.31-1.13c.36-.31.74-.45,1.16-.44.28.01.42.15.42.43,0,.1-.02.22-.07.34l-.49,1.57h1.77ZM25.3,26.19h-.98l-.38,1.1c-.02.06-.03.11-.03.16,0,.25.23.37.68.37.05,0,.1,0,.14,0l.57-1.62ZM29.96,25.51c-.11.46-.46.68-1.03.68h-2.68c.09.06.17.18.23.34.06.17.08.31.07.43-.04.48-.25.85-.63,1.12-.36.26-.83.39-1.41.39-.67,0-1.19-.13-1.55-.4-.32-.24-.48-.55-.48-.94,0-.08,0-.15.02-.23.07-.43.29-.77.64-1.01.38-.26.88-.39,1.5-.39h5.3ZM23.38,23.83c0,.85-.59,1.57-1.78,2.17-.79.41-1.74.72-2.83.93l-.46,1.49h-1.54l1.37-4.39h1.53l-.65,2.06c.58-.13,1.1-.32,1.55-.59.63-.37.95-.81.97-1.3.01-.32-.09-.53-.32-.63-.14-.06-.38-.09-.74-.09h-4.37l.67-1.08h4.4c.65,0,1.14.08,1.48.24.48.22.72.62.72,1.19Z"/>
    </g>
  </g>
</svg>